<mxfile host="app.diagrams.net" modified="2021-10-27T13:07:03.200Z" agent="5.0 (Windows NT 10.0; Win64; x64) AppleWebKit/537.36 (KHTML, like Gecko) Chrome/95.0.4638.54 Safari/537.36" etag="rYtYZcbFrKo2tUZjshj0" version="15.5.9" type="github">
  <diagram id="UZb4PtUwSVx8TrzM3j7W" name="第 1 页">
    <mxGraphModel dx="1038" dy="539" grid="1" gridSize="10" guides="1" tooltips="1" connect="1" arrows="1" fold="1" page="1" pageScale="1" pageWidth="827" pageHeight="1169" math="0" shadow="0">
      <root>
        <mxCell id="0" />
        <mxCell id="1" parent="0" />
        <mxCell id="ZepuH7rqCF3ZaQtj_VtV-2" style="edgeStyle=orthogonalEdgeStyle;rounded=0;orthogonalLoop=1;jettySize=auto;html=1;exitX=1;exitY=0.5;exitDx=0;exitDy=0;entryX=0;entryY=0.5;entryDx=0;entryDy=0;" edge="1" parent="1" source="ZepuH7rqCF3ZaQtj_VtV-1" target="ZepuH7rqCF3ZaQtj_VtV-5">
          <mxGeometry relative="1" as="geometry">
            <mxPoint x="320" y="255" as="targetPoint" />
          </mxGeometry>
        </mxCell>
        <mxCell id="ZepuH7rqCF3ZaQtj_VtV-3" value="修改课程" style="edgeLabel;html=1;align=center;verticalAlign=middle;resizable=0;points=[];" vertex="1" connectable="0" parent="ZepuH7rqCF3ZaQtj_VtV-2">
          <mxGeometry x="-0.3723" y="-2" relative="1" as="geometry">
            <mxPoint as="offset" />
          </mxGeometry>
        </mxCell>
        <mxCell id="ZepuH7rqCF3ZaQtj_VtV-1" value="教师" style="html=1;dashed=0;whitespace=wrap;" vertex="1" parent="1">
          <mxGeometry x="90" y="230" width="100" height="50" as="geometry" />
        </mxCell>
        <mxCell id="ZepuH7rqCF3ZaQtj_VtV-6" style="rounded=0;orthogonalLoop=1;jettySize=auto;html=1;exitX=0;exitY=1;exitDx=0;exitDy=0;" edge="1" parent="1" source="ZepuH7rqCF3ZaQtj_VtV-4" target="ZepuH7rqCF3ZaQtj_VtV-5">
          <mxGeometry relative="1" as="geometry" />
        </mxCell>
        <mxCell id="ZepuH7rqCF3ZaQtj_VtV-7" value="课程数据" style="edgeLabel;html=1;align=center;verticalAlign=middle;resizable=0;points=[];" vertex="1" connectable="0" parent="ZepuH7rqCF3ZaQtj_VtV-6">
          <mxGeometry x="-0.5323" y="-3" relative="1" as="geometry">
            <mxPoint as="offset" />
          </mxGeometry>
        </mxCell>
        <mxCell id="ZepuH7rqCF3ZaQtj_VtV-4" value="课程文件" style="html=1;dashed=0;whitespace=wrap;shape=partialRectangle;right=0;left=0;" vertex="1" parent="1">
          <mxGeometry x="500" y="100" width="100" height="30" as="geometry" />
        </mxCell>
        <mxCell id="ZepuH7rqCF3ZaQtj_VtV-8" style="edgeStyle=none;rounded=0;orthogonalLoop=1;jettySize=auto;html=1;exitX=1;exitY=1;exitDx=0;exitDy=0;entryX=0;entryY=0;entryDx=0;entryDy=0;" edge="1" parent="1" source="ZepuH7rqCF3ZaQtj_VtV-5" target="ZepuH7rqCF3ZaQtj_VtV-15">
          <mxGeometry relative="1" as="geometry">
            <mxPoint x="470" y="330" as="targetPoint" />
          </mxGeometry>
        </mxCell>
        <mxCell id="ZepuH7rqCF3ZaQtj_VtV-14" value="已导入" style="edgeLabel;html=1;align=center;verticalAlign=middle;resizable=0;points=[];" vertex="1" connectable="0" parent="ZepuH7rqCF3ZaQtj_VtV-8">
          <mxGeometry x="-0.5071" y="3" relative="1" as="geometry">
            <mxPoint as="offset" />
          </mxGeometry>
        </mxCell>
        <mxCell id="ZepuH7rqCF3ZaQtj_VtV-9" style="edgeStyle=none;rounded=0;orthogonalLoop=1;jettySize=auto;html=1;exitX=0;exitY=0;exitDx=0;exitDy=0;entryX=0.5;entryY=1;entryDx=0;entryDy=0;" edge="1" parent="1" source="ZepuH7rqCF3ZaQtj_VtV-5" target="ZepuH7rqCF3ZaQtj_VtV-11">
          <mxGeometry relative="1" as="geometry">
            <mxPoint x="560" y="255" as="targetPoint" />
          </mxGeometry>
        </mxCell>
        <mxCell id="ZepuH7rqCF3ZaQtj_VtV-10" value="新增数据" style="edgeLabel;html=1;align=center;verticalAlign=middle;resizable=0;points=[];" vertex="1" connectable="0" parent="ZepuH7rqCF3ZaQtj_VtV-9">
          <mxGeometry x="-0.4867" y="-3" relative="1" as="geometry">
            <mxPoint as="offset" />
          </mxGeometry>
        </mxCell>
        <mxCell id="ZepuH7rqCF3ZaQtj_VtV-5" value="是否已经导入" style="shape=ellipse;html=1;dashed=0;whitespace=wrap;aspect=fixed;perimeter=ellipsePerimeter;" vertex="1" parent="1">
          <mxGeometry x="360" y="215" width="80" height="80" as="geometry" />
        </mxCell>
        <mxCell id="ZepuH7rqCF3ZaQtj_VtV-12" style="edgeStyle=none;rounded=0;orthogonalLoop=1;jettySize=auto;html=1;exitX=1;exitY=0;exitDx=0;exitDy=0;entryX=0;entryY=0.5;entryDx=0;entryDy=0;" edge="1" parent="1" source="ZepuH7rqCF3ZaQtj_VtV-11" target="ZepuH7rqCF3ZaQtj_VtV-4">
          <mxGeometry relative="1" as="geometry" />
        </mxCell>
        <mxCell id="ZepuH7rqCF3ZaQtj_VtV-13" value="课程数据" style="edgeLabel;html=1;align=center;verticalAlign=middle;resizable=0;points=[];" vertex="1" connectable="0" parent="ZepuH7rqCF3ZaQtj_VtV-12">
          <mxGeometry x="-0.1356" y="-3" relative="1" as="geometry">
            <mxPoint as="offset" />
          </mxGeometry>
        </mxCell>
        <mxCell id="ZepuH7rqCF3ZaQtj_VtV-11" value="格式化课程数据" style="shape=ellipse;html=1;dashed=0;whitespace=wrap;aspect=fixed;perimeter=ellipsePerimeter;" vertex="1" parent="1">
          <mxGeometry x="280" y="100" width="80" height="80" as="geometry" />
        </mxCell>
        <mxCell id="ZepuH7rqCF3ZaQtj_VtV-16" style="edgeStyle=none;rounded=0;orthogonalLoop=1;jettySize=auto;html=1;exitX=0.5;exitY=0;exitDx=0;exitDy=0;entryX=0.5;entryY=1;entryDx=0;entryDy=0;" edge="1" parent="1" source="ZepuH7rqCF3ZaQtj_VtV-15" target="ZepuH7rqCF3ZaQtj_VtV-4">
          <mxGeometry relative="1" as="geometry" />
        </mxCell>
        <mxCell id="ZepuH7rqCF3ZaQtj_VtV-17" value="更新课程" style="edgeLabel;html=1;align=center;verticalAlign=middle;resizable=0;points=[];" vertex="1" connectable="0" parent="ZepuH7rqCF3ZaQtj_VtV-16">
          <mxGeometry x="0.376" y="-1" relative="1" as="geometry">
            <mxPoint as="offset" />
          </mxGeometry>
        </mxCell>
        <mxCell id="ZepuH7rqCF3ZaQtj_VtV-15" value="比较差异" style="shape=ellipse;html=1;dashed=0;whitespace=wrap;aspect=fixed;perimeter=ellipsePerimeter;" vertex="1" parent="1">
          <mxGeometry x="510" y="280" width="80" height="80" as="geometry" />
        </mxCell>
      </root>
    </mxGraphModel>
  </diagram>
</mxfile>
